<mxfile host="app.diagrams.net" modified="2024-06-13T13:24:57.067Z" agent="Mozilla/5.0 (Windows NT 10.0; Win64; x64) AppleWebKit/537.36 (KHTML, like Gecko) Chrome/126.0.0.0 Safari/537.36" etag="L07d8vor2Gst9BkqZuG0" version="24.5.4" type="device">
  <diagram name="Page-1" id="NXoiRBcAw8uJ_w0Etrhl">
    <mxGraphModel dx="1434" dy="772" grid="1" gridSize="10" guides="1" tooltips="1" connect="1" arrows="1" fold="1" page="1" pageScale="1" pageWidth="827" pageHeight="1169" math="0" shadow="0">
      <root>
        <mxCell id="0" />
        <mxCell id="1" parent="0" />
        <mxCell id="tHxjTvpz_UJz0zN8TaD5-7" style="edgeStyle=orthogonalEdgeStyle;rounded=0;orthogonalLoop=1;jettySize=auto;html=1;entryX=0.5;entryY=0;entryDx=0;entryDy=0;" edge="1" parent="1" source="tHxjTvpz_UJz0zN8TaD5-1" target="tHxjTvpz_UJz0zN8TaD5-2">
          <mxGeometry relative="1" as="geometry" />
        </mxCell>
        <mxCell id="tHxjTvpz_UJz0zN8TaD5-1" value="&lt;font style=&quot;font-size: 20px;&quot;&gt;b&lt;/font&gt;&lt;span style=&quot;background-color: initial; font-size: 20px;&quot;&gt;ase.json&lt;/span&gt;" style="rounded=1;whiteSpace=wrap;html=1;strokeWidth=2;fillColor=#76608a;strokeColor=#432D57;fontColor=#ffffff;" vertex="1" parent="1">
          <mxGeometry x="294" y="120" width="146" height="60" as="geometry" />
        </mxCell>
        <mxCell id="tHxjTvpz_UJz0zN8TaD5-8" style="edgeStyle=orthogonalEdgeStyle;rounded=0;orthogonalLoop=1;jettySize=auto;html=1;" edge="1" parent="1" source="tHxjTvpz_UJz0zN8TaD5-2" target="tHxjTvpz_UJz0zN8TaD5-5">
          <mxGeometry relative="1" as="geometry" />
        </mxCell>
        <mxCell id="tHxjTvpz_UJz0zN8TaD5-2" value="&lt;span style=&quot;background-color: initial; font-size: 20px;&quot;&gt;vite.json&lt;/span&gt;" style="rounded=1;whiteSpace=wrap;html=1;strokeWidth=2;fillColor=#D2AAF5;strokeColor=#432D57;fontColor=#000000;" vertex="1" parent="1">
          <mxGeometry x="294" y="240" width="146" height="60" as="geometry" />
        </mxCell>
        <mxCell id="tHxjTvpz_UJz0zN8TaD5-5" value="&lt;span style=&quot;background-color: initial; font-size: 20px;&quot;&gt;vite-react.json&lt;/span&gt;" style="rounded=1;whiteSpace=wrap;html=1;strokeWidth=2;fillColor=#D2AAF5;strokeColor=#432D57;fontColor=#000000;" vertex="1" parent="1">
          <mxGeometry x="294" y="360" width="146" height="60" as="geometry" />
        </mxCell>
      </root>
    </mxGraphModel>
  </diagram>
</mxfile>
